<svg xmlns="http://www.w3.org/2000/svg" width="1680" height="980" viewBox="0 0 1680 980">
<defs><style>.t{font-family:"PingFang SC","Heiti SC","Noto Sans CJK SC",Arial,sans-serif;fill:#15263d}.h{font-size:28px;font-weight:700}.st{font-size:20px;font-weight:700}.sm{font-size:15px;fill:#526274}.mono{font-family:Consolas,monospace;font-size:14px;fill:#526274}.card{fill:#fff;stroke-width:2}.arrow{fill:none;stroke-width:4;marker-end:url(#a)}.shadow{filter:url(#s)}</style><filter id="s"><feDropShadow dx="0" dy="3" stdDeviation="4" flood-opacity=".14"/></filter><marker id="a" markerWidth="10" markerHeight="10" refX="8" refY="5" orient="auto"><path d="M0 0L10 5L0 10Z" fill="#54718f"/></marker></defs>
<rect width="1680" height="980" fill="#f7f9fc"/>
<!-- baseline --> <rect x="40" y="35" width="1600" height="190" rx="24" fill="#eaf2fb" stroke="#b9cee5"/><text x="75" y="78" class="t h">(a) 2022 年基线</text>
<g class="shadow"> <rect x="75" y="100" width="275" height="90" rx="16" class="card" stroke="#6e95c0"/><rect x="395" y="100" width="275" height="90" rx="16" class="card" stroke="#6e95c0"/><rect x="715" y="100" width="275" height="90" rx="16" class="card" stroke="#6e95c0"/><rect x="1035" y="100" width="275" height="90" rx="16" class="card" stroke="#6e95c0"/><rect x="1355" y="100" width="230" height="90" rx="16" class="card" stroke="#6e95c0"/></g>
<g class="t" text-anchor="middle"><text x="212" y="140" class="st">多源网格数据</text><text x="212" y="166" class="sm">数据集特定结构</text><text x="532" y="140" class="st">专用预处理脚本</text><text x="532" y="166" class="sm">配置与逻辑分散</text><text x="852" y="140" class="st">tar.gz 文件</text><text x="852" y="166" class="sm">外层归档分发</text><text x="1172" y="140" class="st">包内数据目录</text><text x="1172" y="166" class="mono">Artifacts.toml</text><text x="1470" y="140" class="st">数据读取</text><text x="1470" y="166" class="mono">read_LUT</text></g>
<path d="M350 145H390M670 145H710M990 145H1030M1310 145H1350" class="arrow" stroke="#71869b"/>
<!-- lifecycle --> <rect x="40" y="260" width="1600" height="380" rx="24" fill="#e9f7f5" stroke="#a9d8d3"/><text x="75" y="305" class="t h">(b) 新版数据生命周期</text>
<g class="shadow"> <rect x="75" y="350" width="200" height="220" rx="18" class="card" stroke="#26958f"/><rect x="300" y="350" width="200" height="220" rx="18" class="card" stroke="#26958f"/><rect x="525" y="350" width="200" height="220" rx="18" class="card" stroke="#26958f"/><rect x="750" y="350" width="200" height="220" rx="18" class="card" stroke="#26958f"/><rect x="975" y="350" width="200" height="220" rx="18" class="card" stroke="#26958f"/><rect x="1200" y="350" width="200" height="220" rx="18" class="card" stroke="#26958f"/><rect x="1425" y="350" width="160" height="220" rx="18" class="card" stroke="#26958f"/></g>
<g class="t" text-anchor="middle"><g font-size="17" font-weight="700" fill="#087a78"><text x="105" y="385">01</text><text x="330" y="385">02</text><text x="555" y="385">03</text><text x="780" y="385">04</text><text x="1005" y="385">05</text><text x="1230" y="385">06</text><text x="1455" y="385">07</text></g><text x="175" y="450" class="st">异构源数据</text><text x="175" y="485" class="mono">source NetCDF</text><text x="400" y="450" class="st">共享 YAML 契约</text><text x="400" y="485" class="mono">schema · dimensions</text><text x="625" y="450" class="st">标准化与质控</text><text x="625" y="485" class="sm">维度 · 坐标 · Gapfill</text><text x="850" y="450" class="st">标准 NetCDF</text><text x="850" y="485" class="mono">TAG.nc</text><text x="1075" y="450" class="st">独立数据目录</text><text x="1075" y="485" class="mono">URL · SIZE · SHA-256</text><text x="1300" y="450" class="st">完整性获取</text><text x="1300" y="485" class="sm">临时文件 · 摘要核验</text><text x="1505" y="450" class="st">统一读取</text><text x="1505" y="485" class="sm">模式输入</text></g>
<g class="arrow" stroke="#19877f"><path d="M275 460H295M500 460H520M725 460H745M950 460H970M1175 460H1195M1400 460H1420"/></g>
<text x="840" y="610" text-anchor="middle" class="t sm">数据生产与标准化　→　目录与可信分发　→　模式输入组织</text>
<!-- improvements --> <rect x="40" y="675" width="1600" height="260" rx="24" fill="#fff4e8" stroke="#edc49b"/><text x="75" y="720" class="t h" fill="#8d4a12">(c) 五项关键优化</text>
<g class="shadow"><rect x="75" y="755" width="285" height="125" rx="18" class="card" stroke="#e39a58"/><rect x="390" y="755" width="285" height="125" rx="18" class="card" stroke="#e39a58"/><rect x="705" y="755" width="285" height="125" rx="18" class="card" stroke="#e39a58"/><rect x="1020" y="755" width="285" height="125" rx="18" class="card" stroke="#e39a58"/><rect x="1335" y="755" width="250" height="125" rx="18" class="card" stroke="#e39a58"/></g>
<g class="t" text-anchor="middle"><g font-size="18" font-weight="700" fill="#d56b16"><text x="105" y="790">O1</text><text x="420" y="790">O2</text><text x="735" y="790">O3</text><text x="1050" y="790">O4</text><text x="1365" y="790">O5</text></g><text x="220" y="825" class="st">统一数据契约</text><text x="220" y="852" class="sm">显式表达处理语义</text><text x="535" y="825" class="st">简化数据文件</text><text x="535" y="852" class="sm">直接发布标准 NetCDF</text><text x="850" y="825" class="st">目录独立演化</text><text x="850" y="852" class="sm">版本更新与镜像校验</text><text x="1165" y="825" class="st">事务式获取</text><text x="1165" y="852" class="sm">顺序回退与校验落盘</text><text x="1460" y="825" class="st">模式就绪接口</text><text x="1460" y="852" class="sm">统一读取与模式调用</text></g>
<text x="840" y="920" text-anchor="middle" class="t sm">虚线对应关系：关键优化映射至新版生命周期及 2022 年基线组件</text>
</svg>
